<svg width="22" height="22" viewBox="0 0 22 22" fill="none" xmlns="http://www.w3.org/2000/svg">
<path d="M17.6667 7.40112C17.6667 5.70343 16.9643 4.07529 15.714 2.87485C14.4638 1.6744 12.7681 1 11 1C9.23189 1 7.5362 1.6744 6.28596 2.87485C5.03571 4.07529 4.33333 5.70343 4.33333 7.40112C4.33333 14.8691 1 17.0028 1 17.0028H21C21 17.0028 17.6667 14.8691 17.6667 7.40112Z" stroke="#747474" stroke-width="2" stroke-linecap="round" stroke-linejoin="round"/>
<path d="M12.9222 20.0033C12.7269 20.3064 12.4465 20.5581 12.1091 20.7329C11.7718 20.9079 11.3893 21 11 21C10.6106 21 10.2282 20.9079 9.89087 20.7329C9.55354 20.5581 9.27309 20.3064 9.07776 20.0033" stroke="#747474" stroke-width="2" stroke-linecap="round" stroke-linejoin="round"/>
</svg>
