<svg width="20" height="20" viewBox="0 0 20 20" fill="none" xmlns="http://www.w3.org/2000/svg">
<g clip-path="url(#clip0_47_835)">
<path d="M11.9286 11.9286C10.3571 13.55 10.2429 15.5714 10.1071 20C14.2357 20 17.0857 19.9857 18.5571 18.5571C19.9857 17.0857 20 14.1 20 10.1071C15.5714 10.25 13.55 10.3571 11.9286 11.9286ZM0 10.1071C0 14.1 0.0142857 17.0857 1.44286 18.5571C2.91429 19.9857 5.76429 20 9.89286 20C9.75 15.5714 9.64286 13.55 8.07143 11.9286C6.45 10.3571 4.42857 10.2429 0 10.1071ZM9.89286 0C5.77143 0 2.91429 0.0142857 1.44286 1.44286C0.0142857 2.91429 0 5.9 0 9.89286C4.42857 9.75 6.45 9.64286 8.07143 8.07143C9.64286 6.45 9.75714 4.42857 9.89286 0ZM11.9286 8.07143C10.3571 6.45 10.2429 4.42857 10.1071 0C14.2357 0 17.0857 0.0142857 18.5571 1.44286C19.9857 2.91429 20 5.9 20 9.89286C15.5714 9.75 13.55 9.64286 11.9286 8.07143Z" fill="#3E434B"/>
<path d="M20 10.1071V9.89286C15.5714 9.75 13.55 9.64286 11.9286 8.07143C10.3571 6.45 10.2429 4.42857 10.1071 0H9.89286C9.75 4.42857 9.64286 6.45 8.07143 8.07143C6.45 9.64286 4.42857 9.75714 0 9.89286V10.1071C4.42857 10.25 6.45 10.3571 8.07143 11.9286C9.64286 13.55 9.75714 15.5714 9.89286 20H10.1071C10.25 15.5714 10.3571 13.55 11.9286 11.9286C13.55 10.3571 15.5714 10.2429 20 10.1071Z" fill="white"/>
</g>
<defs>
<clipPath id="clip0_47_835">
<rect width="20" height="20" fill="white"/>
</clipPath>
</defs>
</svg>
